<mxfile host="65bd71144e">
    <diagram id="wrc8hyTSKT0Z8eImfvdB" name="Page-1">
        <mxGraphModel dx="895" dy="475" grid="1" gridSize="10" guides="1" tooltips="1" connect="1" arrows="1" fold="1" page="1" pageScale="1" pageWidth="850" pageHeight="1100" math="0" shadow="0">
            <root>
                <mxCell id="0"/>
                <mxCell id="1" parent="0"/>
                <mxCell id="3" value="" style="rounded=0;whiteSpace=wrap;html=1;fontColor=#ffffff;fillColor=#0050ef;strokeColor=#001DBC;" parent="1" vertex="1">
                    <mxGeometry y="190" width="1230" height="960" as="geometry"/>
                </mxCell>
                <mxCell id="5" value="&lt;strong&gt;max-h-0&lt;/strong&gt;: Sets the maximum height to 0.&lt;br&gt;&lt;strong&gt;overflow-hidden&lt;/strong&gt;: Hides overflow content.&lt;br&gt;&lt;strong&gt;pt-1&lt;/strong&gt;: Padding-top of 0.25rem (4px).&lt;br&gt;&lt;strong style=&quot;background-color: initial;&quot;&gt;pl-4&lt;/strong&gt;&lt;span style=&quot;background-color: initial;&quot;&gt;: Padding-left of 1rem (16px).&lt;br&gt;&lt;/span&gt;&lt;strong&gt;transition-all&lt;/strong&gt;: Smooth transition for all properties.&lt;br&gt;&lt;strong&gt;duration-500&lt;/strong&gt;: Transition duration of 500ms." style="text;html=1;strokeColor=none;fillColor=none;align=center;verticalAlign=middle;whiteSpace=wrap;rounded=0;fontFamily=Comic Sans MS;fontSize=24;fontColor=#3333FF;" parent="1" vertex="1">
                    <mxGeometry width="1230" height="190" as="geometry"/>
                </mxCell>
                <mxCell id="6" value="" style="rounded=0;whiteSpace=wrap;html=1;fontFamily=Comic Sans MS;fontSize=24;fontColor=#ffffff;fillColor=#60a917;strokeColor=#2D7600;" parent="1" vertex="1">
                    <mxGeometry x="20" y="410" width="1200" height="730" as="geometry"/>
                </mxCell>
                <mxCell id="8" value="&lt;strong&gt;flex&lt;/strong&gt;: Flexbox layout for the container.&lt;br&gt;&lt;strong&gt;flex-col&lt;/strong&gt;: Arranges children in a column direction.&lt;br&gt;&lt;strong&gt;border-l&lt;/strong&gt;: Left border.&lt;br&gt;&lt;strong&gt;border-dashed&lt;/strong&gt;: Dashed border style.&lt;br&gt;&lt;strong&gt;border-border&lt;/strong&gt;: Border color.&lt;br&gt;&lt;strong&gt;pl-2&lt;/strong&gt;: Padding-left of 0.5rem (8px).&lt;br&gt;&lt;strong&gt;text-muted-foreground&lt;/strong&gt;: Muted foreground text color." style="text;html=1;strokeColor=none;fillColor=none;align=center;verticalAlign=middle;whiteSpace=wrap;rounded=0;fontFamily=Comic Sans MS;fontSize=24;fontColor=#60A917;" parent="1" vertex="1">
                    <mxGeometry y="200" width="1230" height="200" as="geometry"/>
                </mxCell>
                <mxCell id="9" value="App Sidebar Submenu" style="rounded=1;whiteSpace=wrap;html=1;fontFamily=Comic Sans MS;fontSize=24;" parent="1" vertex="1">
                    <mxGeometry x="340" y="1070" width="500" height="60" as="geometry"/>
                </mxCell>
                <mxCell id="10" value="" style="rounded=0;whiteSpace=wrap;html=1;fontFamily=Comic Sans MS;fontSize=24;fillColor=#D0CEE2;strokeColor=#56517e;" parent="1" vertex="1">
                    <mxGeometry x="30" y="570" width="1180" height="490" as="geometry"/>
                </mxCell>
                <mxCell id="12" value="&lt;strong&gt;flex&lt;/strong&gt;: Flexbox layout for the container.&lt;br&gt;&lt;strong&gt;rounded&lt;/strong&gt;: Rounded corners.&lt;br&gt;&lt;strong&gt;text-muted-foreground&lt;/strong&gt;: Muted foreground text color.&lt;br&gt;&lt;strong&gt;hover:bg-card&lt;/strong&gt;: Changes background color on hover.&lt;br&gt;&lt;strong&gt;hover:text-foreground&lt;/strong&gt;: Changes text color on hover." style="text;html=1;strokeColor=none;fillColor=none;align=center;verticalAlign=middle;whiteSpace=wrap;rounded=0;fontFamily=Comic Sans MS;fontSize=24;fontColor=#D0CEE2;" parent="1" vertex="1">
                    <mxGeometry x="20" y="420" width="1200" height="150" as="geometry"/>
                </mxCell>
                <mxCell id="15" style="edgeStyle=none;html=1;fontFamily=Comic Sans MS;fontSize=24;fontColor=#D0CEE2;" parent="1" source="14" target="10" edge="1">
                    <mxGeometry relative="1" as="geometry"/>
                </mxCell>
                <mxCell id="14" value="Parent Menu" style="rounded=1;whiteSpace=wrap;html=1;fontFamily=Comic Sans MS;fontSize=24;fillColor=#18141D;" parent="1" vertex="1">
                    <mxGeometry x="30" y="980" width="320" height="60" as="geometry"/>
                </mxCell>
                <mxCell id="17" value="&lt;strong&gt;inline-block&lt;/strong&gt;: Displays the element as an inline-level block container.&lt;br&gt;&lt;strong&gt;w-full&lt;/strong&gt;: Full width.&lt;br&gt;&lt;strong&gt;px-4&lt;/strong&gt;: Padding-left and padding-right of 1rem (16px).&lt;br&gt;&lt;strong&gt;py-2&lt;/strong&gt;: Padding-top and padding-bottom of 0.5rem (8px).&lt;br&gt;&lt;strong&gt;text-xs&lt;/strong&gt;: Font size of 0.75rem (12px).&lt;br&gt;&lt;strong&gt;font-semibold&lt;/strong&gt;: Semi-bold font weight." style="text;html=1;strokeColor=none;fillColor=none;align=center;verticalAlign=middle;whiteSpace=wrap;rounded=0;fontFamily=Comic Sans MS;fontSize=24;fontColor=#18141D;" parent="1" vertex="1">
                    <mxGeometry x="40" y="580" width="350" height="370" as="geometry"/>
                </mxCell>
                <mxCell id="19" value="" style="rounded=0;whiteSpace=wrap;html=1;fontFamily=Comic Sans MS;fontSize=24;fontColor=#ffffff;fillColor=#76608a;strokeColor=#432D57;" parent="1" vertex="1">
                    <mxGeometry x="390" y="790" width="820" height="260" as="geometry"/>
                </mxCell>
                <mxCell id="20" value="Child Menu" style="rounded=1;whiteSpace=wrap;html=1;fontFamily=Comic Sans MS;fontSize=24;fontColor=#ffffff;fillColor=#0050ef;strokeColor=#001DBC;" parent="1" vertex="1">
                    <mxGeometry x="690" y="990" width="250" height="50" as="geometry"/>
                </mxCell>
                <mxCell id="22" value="&lt;strong style=&quot;&quot;&gt;inline-block&lt;/strong&gt;: Displays the element as an inline-level block container.&lt;br style=&quot;&quot;&gt;&lt;strong style=&quot;&quot;&gt;w-full&lt;/strong&gt;: Full width.&lt;br&gt;&lt;strong&gt;cursor-pointer&lt;/strong&gt;: Changes the cursor to a pointer when hovered.&lt;br style=&quot;&quot;&gt;&lt;strong style=&quot;&quot;&gt;px-4&lt;/strong&gt;: Padding-left and padding-right of 1rem (16px).&lt;br style=&quot;&quot;&gt;&lt;strong style=&quot;&quot;&gt;py-2&lt;/strong&gt;: Padding-top and padding-bottom of 0.5rem (8px).&lt;br style=&quot;&quot;&gt;&lt;strong style=&quot;&quot;&gt;text-xs&lt;/strong&gt;: Font size of 0.75rem (12px).&lt;br style=&quot;&quot;&gt;&lt;strong style=&quot;&quot;&gt;font-semibold&lt;/strong&gt;: Semi-bold font weight." style="text;html=1;strokeColor=none;fillColor=none;align=center;verticalAlign=middle;whiteSpace=wrap;rounded=0;fontFamily=Comic Sans MS;fontSize=24;fontColor=#76608A;" parent="1" vertex="1">
                    <mxGeometry x="400" y="570" width="800" height="210" as="geometry"/>
                </mxCell>
                <mxCell id="25" value="&lt;strong&gt;flex&lt;/strong&gt;: Flexbox layout for the container.&lt;br&gt;&lt;strong&gt;items-center&lt;/strong&gt;: Aligns items vertically to the center.&lt;br&gt;&lt;strong&gt;p-1&lt;/strong&gt;: Padding of 0.25rem (4px).&lt;br&gt;&lt;strong&gt;text-muted-foreground&lt;/strong&gt;: Muted foreground text color.&lt;br&gt;&lt;strong&gt;transition-all&lt;/strong&gt;: Smooth transition for all properties.&lt;br&gt;&lt;strong&gt;duration-500&lt;/strong&gt;: Transition duration of 500ms." style="text;html=1;strokeColor=none;fillColor=none;align=center;verticalAlign=middle;whiteSpace=wrap;rounded=0;fontFamily=Comic Sans MS;fontSize=24;fontColor=#FFFFFF;" parent="1" vertex="1">
                    <mxGeometry x="400" y="800" width="800" height="190" as="geometry"/>
                </mxCell>
                <mxCell id="26" value="" style="shape=note;whiteSpace=wrap;html=1;backgroundOutline=1;fontColor=#000000;darkOpacity=0.05;fillColor=#FFF9B2;strokeColor=none;fillStyle=solid;direction=west;gradientDirection=north;gradientColor=#FFF2A1;shadow=1;size=20;pointerEvents=1;" vertex="1" parent="1">
                    <mxGeometry x="-40" y="170" width="140" height="160" as="geometry"/>
                </mxCell>
            </root>
        </mxGraphModel>
    </diagram>
</mxfile>